<?xml version="1.0" encoding="UTF-8" standalone="no"?>
<svg
   xmlns:dc="http://purl.org/dc/elements/1.1/"
   xmlns:cc="http://creativecommons.org/ns#"
   xmlns:rdf="http://www.w3.org/1999/02/22-rdf-syntax-ns#"
   xmlns:svg="http://www.w3.org/2000/svg"
   xmlns="http://www.w3.org/2000/svg"
   xmlns:sodipodi="http://sodipodi.sourceforge.net/DTD/sodipodi-0.dtd"
   xmlns:inkscape="http://www.inkscape.org/namespaces/inkscape"
   id="Layer_1"
   data-name="Layer 1"
   viewBox="0 0 500 153.8"
   version="1.1"
   sodipodi:docname="Atlus.svg"
   inkscape:version="0.92.5 (2060ec1f9f, 2020-04-08)">
  <metadata
     id="metadata19">
    <rdf:RDF>
      <cc:Work
         rdf:about="">
        <dc:format>image/svg+xml</dc:format>
        <dc:type
           rdf:resource="http://purl.org/dc/dcmitype/StillImage" />
      </cc:Work>
    </rdf:RDF>
  </metadata>
  <sodipodi:namedview
     pagecolor="#ffffff"
     bordercolor="#666666"
     borderopacity="1"
     objecttolerance="10"
     gridtolerance="10"
     guidetolerance="10"
     inkscape:pageopacity="0"
     inkscape:pageshadow="2"
     inkscape:window-width="2560"
     inkscape:window-height="1377"
     id="namedview17"
     showgrid="false"
     inkscape:zoom="1.6065466"
     inkscape:cx="312.07863"
     inkscape:cy="73.592947"
     inkscape:window-x="-8"
     inkscape:window-y="-8"
     inkscape:window-maximized="1"
     inkscape:current-layer="Layer_1" />
  <defs
     id="defs4">
    <style
       id="style2">.cls-1{fill:#fff;}</style>
  </defs>
  <path
     class="cls-1"
     d="M 103.92021,208.03789 103.05,324.89 h 27.92077 L 131.17,174.2 H 93.85 L 0,324.89 h 29.638239 z"
     transform="translate(0,-172.64)"
     id="path6"
     style="fill:#000000"
     inkscape:connector-curvature="0"
     sodipodi:nodetypes="cccccccc" />
  <polygon
     class="cls-1"
     points="225.76 1.55 150.31 1.55 150.31 26.22 175.19 26.22 175.19 152.24 200.89 152.24 200.89 26.22 225.76 26.22 225.76 1.55"
     id="polygon8"
     style="fill:#000000" />
  <polygon
     class="cls-1"
     points="274.31 127.58 274.31 1.55 248.6 1.55 248.6 152.24 259.17 152.24 274.31 152.24 313.48 152.24 313.48 127.58 274.31 127.58"
     id="polygon10"
     style="fill:#000000" />
  <path
     class="cls-1"
     d="M348.18,321.93a29.58,29.58,0,0,1-12.38-13.06q-4.26-8.55-4.25-20.46V174.2h25.8V289.13q0,5.5,2.7,8.55a9.41,9.41,0,0,0,7.46,3.06,9.71,9.71,0,0,0,7.62-3.06q2.75-3,2.74-8.55V174.2h25.81V288.41q0,11.91-4.3,20.46a29.93,29.93,0,0,1-12.44,13.06q-8.13,4.51-19.43,4.51T348.18,321.93Z"
     transform="translate(0 -172.64)"
     id="path12"
     style="fill:#000000" />
  <path
     class="cls-1"
     d="M442.38,322a30.33,30.33,0,0,1-13-12.75q-4.5-8.34-4.51-20.06v-8.08l25.6-.21V289q0,5.7,3.21,9t8.92,3.27q5.6,0,8.65-3.22c2-2.14,3.06-5.07,3.06-8.81V276.07a11.57,11.57,0,0,0-2.33-7.2,21.68,21.68,0,0,0-6-5.29q-3.69-2.22-10-5.33l-.77-.42-.78-.41-1.35-.62a87.83,87.83,0,0,1-14.3-8.86,36.57,36.57,0,0,1-9.84-12.18Q425,228.2,425,217.1v-7.77q0-11.51,4.4-19.74A29.64,29.64,0,0,1,442.17,177q8.4-4.35,20.21-4.36,11.5,0,19.79,4.36a29.31,29.31,0,0,1,12.65,12.69q4.35,8.35,4.35,20.06v8.49l-25.6.32V210c0-3.86-1-6.89-2.95-9.06a10.54,10.54,0,0,0-8.24-3.27c-3.73,0-6.62,1-8.65,2.95a10.8,10.8,0,0,0-3.06,8.14v10a12.25,12.25,0,0,0,2.23,7.36,19.7,19.7,0,0,0,5.59,5.23q3.38,2.13,9.38,5.13c.76.35,1.54.73,2.33,1.14s1.61.83,2.44,1.25l.36.2a1.63,1.63,0,0,0,.37.21,115.4,115.4,0,0,1,13.88,8.45,31.62,31.62,0,0,1,9,10.93q3.74,7.05,3.73,18v12.54q0,11.72-4.4,20.06A29.9,29.9,0,0,1,482.8,322q-8.4,4.4-20.11,4.4T442.38,322Z"
     transform="translate(0 -172.64)"
     id="path14"
     style="fill:#000000" />
</svg>
