<svg id="Layer_1" data-name="Layer 1" xmlns="http://www.w3.org/2000/svg" viewBox="0 0 333.33 500"><defs><style>.cls-1{fill:#fff;}</style></defs><ellipse cx="166.67" cy="250" rx="235.7" ry="353.55"/><path class="cls-1" d="M411.9,495c-4.4.86-320.64.65-323.56-.27V7.07c1.58-.13,3.11-.36,4.63-.36q61.58,0,123.14,0H411.62C412.63,9.93,412.79,489.77,411.9,495Z" transform="translate(-83)"/><path d="M156.71,300.27c.95.11,1.9.18,2.84.35,19.56,3.56,35.24-14.58,28.65-33.35C181.13,247.12,174,227,166.54,207c-2.57-6.85-.11-14.43,7.81-17.58,30.36-12,60.59-24.39,90.91-36.54,8.64-3.46,14.66-9.25,17.26-18.31a25.17,25.17,0,0,0-.26-14.88Q275.15,97.37,268,75.11c-3.25-10.18-6.52-20.34-9.74-30.53-1.56-4.92-3.29-9.75-6.44-14.17a30.24,30.24,0,0,1,2.7,1.45Q292.49,57,330.4,82.19a27.07,27.07,0,0,1,11.2,14.62c8.33,26,16.76,51.86,25,77.83,4.6,14.43-2,28.39-16.05,34.06Q304.82,227.21,259,245.57c-3.83,1.53-6.84,3.8-8.32,7.79a12.11,12.11,0,0,0,.15,8.63c7.11,19.62,14.13,39.28,21.24,58.9,2.05,5.67,3,11.34,1.5,17.31a25.33,25.33,0,0,1-38.16,15.15c-9.44-6-18.67-12.3-28-18.48l-48.51-32.22c-.8-.53-1.56-1.12-2.34-1.68Z" transform="translate(-83)"/><path d="M354.59,409.92c0,3.44,0,6.88,0,10.32a26.73,26.73,0,0,1-.38,4.39c-.93,5-3.35,7.37-8.33,7.87a20.9,20.9,0,0,1-6.54-.49,6.57,6.57,0,0,1-5-4.92,25.18,25.18,0,0,1-.95-6.15c-.11-6.76-.05-13.51,0-20.27a31.7,31.7,0,0,1,.34-4.77c.91-5.67,4-8.49,9.7-8.63,8.13-.2,10.78,3.47,11.09,9.76.21,4.29,0,8.59,0,12.89Z" transform="translate(-83)"/><path d="M284.36,432.26v-44a8.92,8.92,0,0,1,2.08-.52c3.68,0,7.36-.08,11,.14,4.13.24,6.23,2.2,7.09,6.2a8.57,8.57,0,0,1,.24,1.82c0,9.07.26,18.15,0,27.21-.21,6.25-3.39,9-9.7,9.14C291.66,432.34,288.24,432.26,284.36,432.26Z" transform="translate(-83)"/><path d="M252.12,387.92h6c.07,1.5.19,2.82.19,4.13,0,9.45,0,18.91,0,28.37a34.79,34.79,0,0,0,.11,3.68c.27,2.5,1.61,3.57,4.22,3.5,2.43-.07,3.57-1.09,3.84-3.54a26.3,26.3,0,0,0,.07-2.95l0-28.73V388h6.19c.09,1.19.23,2.26.23,3.34,0,9.94-.07,19.89.05,29.84.13,11.09-7.69,12.65-15,10.85a7.35,7.35,0,0,1-5.38-5.11,16,16,0,0,1-.8-4.69c-.07-10.69,0-21.37,0-32C251.85,389.62,252,389,252.12,387.92Z" transform="translate(-83)"/><path d="M193.79,419.54h6.11c.14,1.62.22,3.06.41,4.49.32,2.41,1.42,3.51,3.44,3.53,2.19,0,3.41-1.17,3.74-3.68a9.88,9.88,0,0,0-2.68-8.47c-2.27-2.41-4.64-4.74-6.82-7.24-3.59-4.12-5.17-8.83-3.77-14.32a7.66,7.66,0,0,1,6.48-6.21c.61-.1,1.2-.27,1.81-.34,8-.87,12.18,4.09,10.06,12.26h-5.08c-.13-1.27-.21-2.56-.39-3.83-.34-2.4-1.52-3.51-3.53-3.43s-3,1.29-3.31,3.69a9.18,9.18,0,0,0,2.18,7.2c2.16,2.51,4.33,5,6.63,7.4a15.7,15.7,0,0,1,4.39,13.5c-.58,5.07-3.05,7.94-8.07,8.46a19,19,0,0,1-6.53-.54c-3-.78-4.69-3.1-5-6.17A61.89,61.89,0,0,1,193.79,419.54Z" transform="translate(-83)"/><path d="M151.52,413.33v18.74h-5.43c-.89-2.41-1.2-38.35-.3-44.27,4.88-.13,9.85-.5,14.79.35,2.52.43,4,2.34,4.45,4.83a38.05,38.05,0,0,1,0,14.62,5.72,5.72,0,0,1-5.19,5C157.31,412.88,154.76,413,151.52,413.33Z" transform="translate(-83)"/><path d="M242.61,392.73l-6.78.43c-.42,4.27-.14,8.53-.18,12.77s0,8.59,0,12.89V432H229.2V393.16l-7-.38c-.08-1.53-.15-3-.25-4.81h20.71Z" transform="translate(-83)"/><path d="M316.82,387.9h4.95c.91,2.65,1.14,39.79.27,44.11-.64.09-1.34.25-2,.28-1.09,0-2.17,0-3.16,0C315.91,429.05,315.92,391.12,316.82,387.9Z" transform="translate(-83)"/><path d="M179.22,414.36a4.29,4.29,0,0,1-4.19-4.27,4.34,4.34,0,0,1,3.92-4.17,4.22,4.22,0,1,1,.27,8.44Z" transform="translate(-83)"/><path d="M299.7,459.14l-3.35,1.24-.68,5.2c-1.88-1.85-2.21-6.1-1.3-12.48,1.64-.94,3.32-.72,5.33.14Z" transform="translate(-83)"/><path d="M212.59,456.8c1.77-.29,3.61-.61,4.27,1.26.72,2.06.95,4.37-.39,6.36-.95,1.39-2.14,2.62-3.21,3.91C212,466.91,211.68,463,212.59,456.8Z" transform="translate(-83)"/><path d="M287.94,464.94c-3.84.61-4.78-.08-4.91-3.4-.07-2-.17-3.9,2-5.11.58-.32.75-1.36,1.13-2.05a3.7,3.7,0,0,1,1.33-1.52A54,54,0,0,1,287.94,464.94Z" transform="translate(-83)"/><path d="M236.53,456.74h6.55c1.58,2.83.95,5.58.67,8.92-2.58-2-.75-4.68-2.46-6.94l-.59,6.63c-3-1.46-.5-4.52-2.52-6.29l-.43,6.24C235.72,463.86,235.49,462,236.53,456.74Z" transform="translate(-83)"/><path d="M202.92,465.05c-3.43.45-4.25-.14-4.39-3.29-.1-2.19-.23-4.3,2.29-5.64.82-.43,1-2.17,1.48-3.52C203.66,455,203.87,461,202.92,465.05Z" transform="translate(-83)"/><path d="M318.29,452.92v12.29c-1.64.24-3.15.57-4-1-1.08-2-1.39-4.58,0-6.21a21.27,21.27,0,0,0,3.11-5.22Z" transform="translate(-83)"/><path d="M311.68,457.5c0,2,0,3.79,0,5.61a2.19,2.19,0,0,1-2.25,2.35,2.29,2.29,0,0,1-2.66-2.34,22.11,22.11,0,0,1,0-3.64C306.94,456.39,308.23,455.81,311.68,457.5Z" transform="translate(-83)"/><path d="M347.82,461a6.52,6.52,0,0,1-.32,2.63,4.11,4.11,0,0,1-2.35,1.83,1.87,1.87,0,0,1-2.24-1.89,39.92,39.92,0,0,1,0-5.13,2.08,2.08,0,0,1,2.22-2,2.31,2.31,0,0,1,2.55,2.13A22.66,22.66,0,0,1,347.82,461Z" transform="translate(-83)"/><path d="M271.35,463.07l3.12,1.57c-2.14,1.23-3.76,1.08-5.92.13.71-1.61,1.41-3.1,2-4.62s1.13-3.13,1.84-5.15l-2.95.7c-.72-1.82-.35-3,1.54-3.34a2.39,2.39,0,0,1,3.11,2.22,11.09,11.09,0,0,1-.61,3.9A48.85,48.85,0,0,1,271.35,463.07Z" transform="translate(-83)"/><path d="M210.33,461.14l-2.86,1.19.15.66,2.4-.35c.71,1.87-.23,2.62-1.77,2.83-1.34.18-2.6-.28-2.76-1.77a19,19,0,0,1,.07-5.49,3,3,0,0,1,2.33-1.71,3.27,3.27,0,0,1,2.35,1.71C210.65,459.09,210.33,460.3,210.33,461.14Z" transform="translate(-83)"/><path d="M251,461.21l-2.55.88v.56l2.43.23a1.81,1.81,0,0,1-1.63,2.58c-1.34.24-2.64-.15-2.9-1.58a21.38,21.38,0,0,1-.2-5.12,2.35,2.35,0,0,1,2.7-2.38,2.27,2.27,0,0,1,2.31,2.37A18,18,0,0,1,251,461.21Z" transform="translate(-83)"/><path d="M324.54,456.06c1.64,3.34.68,6.16.86,8.87-4.08.68-4.81.17-4.89-3.35,0-1.62.16-3.24.28-5.48,2.92,2.21.88,5,2.32,7.18C324,461,322.82,458.52,324.54,456.06Z" transform="translate(-83)"/><path d="M162.67,461l-2.84,1.19.1.56a10.87,10.87,0,0,0,1.14,0,8,8,0,0,0,1-.16c.93,1.36.28,2.23-.86,2.65s-2.84.37-3.1-1a22.68,22.68,0,0,1-.06-6.48c.06-.56,1.45-1.36,2.21-1.34a3,3,0,0,1,2.16,1.5C162.82,458.75,162.6,459.85,162.67,461Z" transform="translate(-83)"/><path d="M187.79,457.27c4.1-1.48,4.88-.82,4.67,3.73l-1.42.71a2,2,0,0,0-1.15,1.31l2.35-.37c-.24,3.12-1,3.43-4.45,1.82Z" transform="translate(-83)"/><path d="M276.53,465.14v-8.08c3.67-.88,4.63-.32,4.65,3.08,0,1.7.64,3.59-.86,5.33-2.12-2-.37-4.56-1.53-6.69C277.44,460.81,279.36,463.57,276.53,465.14Z" transform="translate(-83)"/><path d="M224.1,465.27h-4.16c-2-2.54.61-5.25-.63-7.55,1-1.53,2.41-1.81,3.57-1a4.23,4.23,0,0,1,1.17,2.77C224.23,461.29,224.1,463.09,224.1,465.27Z" transform="translate(-83)"/><path d="M167.33,458.89l-2.26-.23c-.39-1.74.61-2.23,2-2.3a2,2,0,0,1,2.34,1.81c.14,2.17,0,4.35,0,6.95l-3.81.35C163.81,462.05,164.09,460.92,167.33,458.89Z" transform="translate(-83)"/><path d="M150.66,456.1l-3-1.87v9.44l2.65-2.05c1.25,1.57.91,2.76-.57,3.62s-3.94,0-4.09-1.67a53.3,53.3,0,0,1,0-9.11c.14-1.74,1.76-2.3,3.34-2S151.45,453.77,150.66,456.1Z" transform="translate(-83)"/><path d="M253.36,456.92c3.84-.56,4.47-.14,4.57,3.17.05,1.65-.11,3.3-.2,5.53-2.71-2-.81-4.61-2.46-7-.26,2.52-.47,4.49-.71,6.72C252.68,463.54,252.51,462,253.36,456.92Z" transform="translate(-83)"/><path d="M332,463.34c-.77.77-1.54,1.53-2.7,2.7-.83-1.1-1.77-1.82-1.93-2.69a20.45,20.45,0,0,1-.07-4.76,2.16,2.16,0,0,1,2.43-2.2c1.61.05,2.42.89,2.07,2.88l-2.44-.4v4.23l2-.46Z" transform="translate(-83)"/><path d="M182.15,465.9c-.71-3.64-2-6.25-.53-9.29.44,1.15.88,2.3,1.47,3.86l1.68-4a12.34,12.34,0,0,1-.45,7.75C184,464.79,183.19,465.11,182.15,465.9Z" transform="translate(-83)"/><path d="M350,465.09V457c3.75-.6,4.55-.1,4.6,3.15,0,1.69.57,3.57-1.5,5-.16-2.07-.33-4.13-.49-6.22a3.75,3.75,0,0,0-1,2.92c-.08,1.11-.28,2.21-.43,3.32Z" transform="translate(-83)"/><path d="M232.54,454.22c2.48,3.58-.6,7.46,1.94,10.52l-.84.58c-.65-.48-1.79-.9-1.86-1.45a72,72,0,0,1-.45-7.91C231.32,455.51,231.93,455.06,232.54,454.22Z" transform="translate(-83)"/><path d="M173.05,454.06c2.7,3.65-.75,7.65,1.95,10.69-1.54,1-2.6.11-2.71-.83a72.43,72.43,0,0,1-.35-8.21C171.93,455.34,172.42,455,173.05,454.06Z" transform="translate(-83)"/><path d="M335.57,454.07c2.22,3.85-.86,7.69,1.8,10.89l-.88.48c-.66-.52-1.86-1-1.91-1.57a82.4,82.4,0,0,1-.27-8.32C334.31,455.21,334.87,454.86,335.57,454.07Z" transform="translate(-83)"/><path d="M226.48,465.16c-.8-2.75-.5-5.51-.09-8.53l2.47.36c-.46,2.93-.88,5.64-1.3,8.34Z" transform="translate(-83)"/><path d="M262.43,465.55c-.61-.62-1.78-1.27-1.75-1.86.16-3-1.5-6.15.68-9.73.7,1.29,1.44,2.05,1.48,2.84.07,1.43-.43,2.88-.41,4.31a30.08,30.08,0,0,0,.64,4.08Z" transform="translate(-83)"/><path d="M340.12,456.83a14.12,14.12,0,0,1,.2,9A8.88,8.88,0,0,1,340.12,456.83Z" transform="translate(-83)"/><path d="M177.47,456.84a7.8,7.8,0,0,1,0,8.29A9.77,9.77,0,0,1,177.47,456.84Z" transform="translate(-83)"/><path d="M304.64,457c-.5,3.09-.91,5.63-1.35,8.38-2.13-1.15-1.25-2.91-1.36-4.3a40.73,40.73,0,0,1,.16-4.55Z" transform="translate(-83)"/><path d="M153.19,465v-8.07h2.54l-1.58,8.15Z" transform="translate(-83)"/><path class="cls-1" d="M348.05,410.28c0,3.68,0,7.36,0,11a13.78,13.78,0,0,1-.32,3.28,3.83,3.83,0,0,1-7.46,0,11.36,11.36,0,0,1-.43-2.9q0-11.78,0-23.54a12.09,12.09,0,0,1,.54-3.26,3.79,3.79,0,0,1,7.2,0,13.33,13.33,0,0,1,.48,3.62c.06,3.92,0,7.85,0,11.77Z" transform="translate(-83)"/><path class="cls-1" d="M290.78,426.49V393.58c5.18-1.39,7.73.08,7.89,5,.22,7.49.23,15-.09,22.47C298.35,426.3,296.1,427.67,290.78,426.49Z" transform="translate(-83)"/><path class="cls-1" d="M151.8,407.33V393.26a28.33,28.33,0,0,1,3-.29c3.33,0,4.16.8,4.32,4.1.1,2.08.1,4.18,0,6.26-.17,3.52-1,4.25-4.53,4.25C153.79,407.58,153,407.44,151.8,407.33Z" transform="translate(-83)"/></svg>